# xmcd
#
# Track frame offsets: 
#        150
#        10229
#        61253
#        70525
#        77112
#        80582
#        89405
#        103968
#        112067
#        124860
#        129992
#        144644
#        146827
#        151401
#        154891
#        164560
#        174721
#        209108
#        252662
#        268605
#        292919
#        303005
#
# Disc length: 4252 seconds
#
# Revision: 1
# Processed by: cddbd v1.5.2PL0 Copyright (c) Steve Scherf et al.
# Submitted via: ExactAudioCopy v0.95b4
#
DISCID=49109a16
DTITLE=Ralph Vaughan Williams, BBC Philharmonic, Rumon Gamba - Film Mu
DTITLE=sic of Ralph Vaughan Williams, Vol. 2
DYEAR=2003
DGENRE=Soundtrack
TTITLE0=49th Parallel: Prelude
TTITLE1=49th Parallel: Prologue
TTITLE2=49th Parallel: Control Room Alert
TTITLE3=49th Parallel: Hudson Bay Post
TTITLE4=49th Parallel: Looting the Store
TTITLE5=49th Parallel: Death of Kühnecke
TTITLE6=49th Parallel: Anna's Volkslied
TTITLE7=49th Parallel: The Wheat Harvest
TTITLE8=49th Parallel: Winnipeg I
TTITLE9=49th Parallel: Winnipeg II
TTITLE10=49th Parallel: Nazi March
TTITLE11=49th Parallel: Indian Music I
TTITLE12=49th Parallel: Indian Music II
TTITLE13=49th Parallel: Indian Music III
TTITLE14=49th Parallel: Lake in the Mountains
TTITLE15=49th Parallel: Prelude (closing titles)
TTITLE16=The Dim Little Island
TTITLE17=The England of Elizabeth: Titles
TTITLE18=The England of Elizabeth: Books
TTITLE19=The England of Elizabeth: Stratford
TTITLE20=The England of Elizabeth: Treasures
TTITLE21=The England of Elizabeth: King's College
EXTD=
EXTT0=
EXTT1=
EXTT2=
EXTT3=
EXTT4=
EXTT5=
EXTT6=
EXTT7=
EXTT8=
EXTT9=
EXTT10=
EXTT11=
EXTT12=
EXTT13=
EXTT14=
EXTT15=
EXTT16=
EXTT17=
EXTT18=
EXTT19=
EXTT20=
EXTT21=
PLAYORDER=
